Coordinates
version=1
nRows=14
nColumns=46
inDegrees=yes

Units are S.I. units (second, meters, Newtons, ...)
Angles are in degrees.

endheader
time	pelvis_tilt	pelvis_list	pelvis_rotation	pelvis_tx	pelvis_ty	pelvis_tz	bb_angle	bb_tx	bb_ty	bb_tz	hip_flexion_r	hip_adduction_r	hip_rotation_r	knee_angle_r	knee_angle_r_beta	ankle_angle_r	subtalar_angle_r	mtp_angle_r	crank_angle_r	hip_flexion_l	hip_adduction_l	hip_rotation_l	knee_angle_l	knee_angle_l_beta	ankle_angle_l	subtalar_angle_l	mtp_angle_l	crank_angle_l	lumbar_extension	lumbar_bending	lumbar_rotation	arm_flex_r	arm_add_r	arm_rot_r	elbow_flex_r	pro_sup_r	wrist_flex_r	wrist_dev_r	arm_flex_l	arm_add_l	arm_rot_l	elbow_flex_l	pro_sup_l	wrist_flex_l	wrist_dev_l
      7.50000000	    -18.44342728	      6.17044010	      9.46520820	      0.14624726	      1.15743150	     -0.23957878	      0.00000000	      0.50000000	      0.00000000	      0.25000000	     50.44263825	    -15.99828864	     -7.06943427	     61.25996457	      1.06918808	      0.19985525	     -3.58382562	      0.00000000	      0.00000000	     92.16940633	      1.07773352	     -0.89964633	     96.93015914	      1.69175042	     -6.01116074	      3.08526462	      0.00000000	      0.00000000	    -64.67664681	     -3.01134626	     -7.45359426	     89.51549672	    -23.90833564	     30.71858849	     65.08505461	     35.46391159	      0.00000000	      0.00000000	     89.75171142	    -11.60928834	     28.31774903	     70.06533658	     28.22348750	      0.00000000	      0.00000000
      7.50500000	    -18.58752033	      5.78784472	      9.36962703	      0.14574740	      1.15661241	     -0.23880545	      0.00000000	      0.50000000	      0.00000000	      0.25000000	     51.66759005	    -15.55713573	     -6.74648133	     63.48109855	      1.10795418	     -1.05993209	     -5.08365724	      0.00000000	      0.00000000	     91.12415671	      0.91032814	     -0.47867986	     95.24837778	      1.66239780	     -2.92893727	      4.60057434	      0.00000000	      0.00000000	    -64.60814015	     -3.01446752	     -6.53974547	     89.50548406	    -25.22614430	     30.87582621	     66.08284271	     35.67895829	      0.00000000	      0.00000000	     89.75459448	    -11.08690622	     27.98493191	     70.01148197	     27.97342021	      0.00000000	      0.00000000
      7.51000000	    -18.68195511	      5.63643466	      9.40867700	      0.14502138	      1.15551892	     -0.23870148	      0.00000000	      0.50000000	      0.00000000	      0.25000000	     52.98293989	    -15.49607390	     -6.28208826	     65.93725810	      1.15082225	     -2.13235156	     -5.78481670	      0.00000000	      0.00000000	     89.89618737	      1.04395641	     -0.33881490	     93.44306102	      1.63088908	     -0.07602555	      5.04815531	      0.00000000	      0.00000000	    -64.52587159	     -2.97394741	     -6.30878188	     89.50147080	    -25.74647858	     30.77278605	     66.30021635	     35.71756410	      0.00000000	      0.00000000	     89.75547102	    -10.94928196	     27.89611381	     69.91923896	     27.88757225	      0.00000000	      0.00000000
      7.51500000	    -18.72493054	      5.32697282	      9.19598598	      0.14456955	      1.15433426	     -0.23786588	      0.00000000	      0.50000000	      0.00000000	      0.25000000	     54.26013672	    -14.98200796	     -5.78824484	     68.25374957	      1.19125266	     -3.65015116	     -7.23738381	      0.00000000	      0.00000000	     88.57204281	      0.85688059	      0.02362281	     91.60924159	      1.59888289	      2.87536800	      6.43161765	      0.00000000	      0.00000000	    -64.46175080	     -3.11620344	     -5.22340123	     89.47235796	    -27.52339473	     31.22715344	     67.43167665	     36.02015241	      0.00000000	      0.00000000	     89.76223767	     -9.83025651	     27.58278709	     69.39724999	     27.39394657	      0.00000000	      0.00000000
      7.52000000	    -18.70993067	      5.13941501	      9.10806256	      0.14413302	      1.15323555	     -0.23753039	      0.00000000	      0.50000000	      0.00000000	      0.25000000	     55.50081395	    -14.76217962	     -5.34192812	     70.65318758	      1.23313075	     -4.62618154	     -7.67835239	      0.00000000	      0.00000000	     87.04814965	      0.88952051	      0.16276864	     89.57662874	      1.56340710	      5.51422634	      6.50918843	      0.00000000	      0.00000000	    -64.41197457	     -3.10396049	     -4.86942248	     89.47265618	    -27.83616135	     31.12934746	     67.54369498	     36.04699432	      0.00000000	      0.00000000	     89.76385583	     -9.88866669	     27.48309307	     69.20703623	     27.31245388	      0.00000000	      0.00000000
      7.52500000	    -18.65716346	      5.05914004	      8.89871021	      0.14382486	      1.15214384	     -0.23686437	      0.00000000	      0.50000000	      0.00000000	      0.25000000	     56.75244632	    -14.44651428	     -4.70407293	     73.00003388	      1.27409095	     -5.80367663	     -8.51001427	      0.00000000	      0.00000000	     85.35676803	      0.78538530	      0.18765986	     87.37693742	      1.52501525	      7.92399292	      6.87455904	      0.00000000	      0.00000000	    -64.40144040	     -3.26289324	     -4.42765685	     89.43882075	    -28.27499212	     31.08810048	     67.78722191	     36.10986288	      0.00000000	      0.00000000	     89.75902958	     -9.73856698	     27.45784253	     68.81270161	     27.17949042	      0.00000000	      0.00000000
      7.53000000	    -18.56680857	      4.80963568	      8.63734938	      0.14358417	      1.15090352	     -0.23625829	      0.00000000	      0.50000000	      0.00000000	      0.25000000	     57.97266565	    -13.95260678	     -4.21235626	     75.27936364	      1.31387275	     -7.30110109	     -9.70073857	      0.00000000	      0.00000000	     83.63620240	      0.60439249	      0.33947889	     85.09818886	      1.48524358	     10.01039380	      6.95932590	      0.00000000	      0.00000000	    -64.36366795	     -3.40747256	     -3.34862058	     89.40240065	    -29.91027004	     31.63286790	     68.66961781	     36.45281856	      0.00000000	      0.00000000	     89.76230676	     -8.55937687	     27.22276927	     67.89706344	     26.65539534	      0.00000000	      0.00000000
      7.53500000	    -18.35509829	      4.58346972	      8.37253598	      0.14331462	      1.14953797	     -0.23641162	      0.00000000	      0.50000000	      0.00000000	      0.25000000	     59.13013964	    -13.61595630	     -3.77257474	     77.64037738	      1.35508022	     -8.33745290	    -10.04360867	      0.00000000	      0.00000000	     81.78331422	      0.56642488	      0.48985415	     82.77722154	      1.44473506	     11.83417923	      6.61353341	      0.00000000	      0.00000000	    -64.34241117	     -3.39470482	     -2.90816527	     89.37539279	    -29.98726034	     31.64241904	     68.69907566	     36.48536633	      0.00000000	      0.00000000	     89.75403791	     -8.50766301	     27.32080368	     67.70540607	     26.58241497	      0.00000000	      0.00000000
      7.54000000	    -18.07194744	      4.44206276	      8.18910300	      0.14320152	      1.14837031	     -0.23623528	      0.00000000	      0.50000000	      0.00000000	      0.25000000	     60.21235492	    -13.34039931	     -3.37846842	     79.94193242	      1.39524993	     -9.76982787	    -11.05399746	      0.00000000	      0.00000000	     79.76580544	      0.58098609	      0.51784707	     80.26833740	      1.40094677	     13.30807192	      6.13611869	      0.00000000	      0.00000000	    -64.35930664	     -3.39890620	     -2.47356662	     89.34719342	    -30.17330504	     31.80248704	     68.57182936	     36.57127853	      0.00000000	      0.00000000	     89.75216537	     -8.24782395	     27.51540626	     67.26367744	     26.38600624	      0.00000000	      0.00000000
      7.54500000	    -17.80394476	      4.13762819	      8.01692677	      0.14302287	      1.14698929	     -0.23642418	      0.00000000	      0.50000000	      0.00000000	      0.25000000	     61.33985956	    -13.03783161	     -3.09365064	     82.23554381	      1.43528100	    -10.81668259	    -11.23666097	      0.00000000	      0.00000000	     77.80071218	      0.61357771	      0.74740564	     77.73663686	      1.35676026	     14.68491423	      5.55936196	      0.00000000	      0.00000000	    -64.32049121	     -3.18423000	     -1.93111965	     89.33169473	    -30.05028703	     31.80200865	     68.50296992	     36.58850549	      0.00000000	      0.00000000	     89.73739386	     -8.20900425	     27.64938913	     67.13264516	     26.36270759	      0.00000000	      0.00000000
      7.55000000	    -17.46087938	      4.02264104	      7.85983102	      0.14289388	      1.14577574	     -0.23675806	      0.00000000	      0.50000000	      0.00000000	      0.25000000	     62.47204260	    -12.91431266	     -2.73050021	     84.54502478	      1.47558905	    -12.20882639	    -11.75049650	      0.00000000	      0.00000000	     75.68886792	      0.74942843	      0.80695148	     75.12721747	      1.31121730	     15.63693709	      4.68541672	      0.00000000	      0.00000000	    -64.35065815	     -3.07343767	     -1.58876764	     89.28461109	    -29.86625476	     31.73311108	     68.25408270	     36.58824315	      0.00000000	      0.00000000	     89.73691595	     -8.24311502	     28.09717402	     66.73300516	     26.29340188	      0.00000000	      0.00000000
      7.55500000	    -17.10614153	      3.82261652	      7.73574381	      0.14271215	      1.14446965	     -0.23733402	      0.00000000	      0.50000000	      0.00000000	      0.25000000	     63.63991719	    -12.80603076	     -2.48698024	     86.80619080	      1.51505384	    -13.67054377	    -12.26736923	      0.00000000	      0.00000000	     73.59778576	      0.92993447	      1.04960386	     72.51743815	      1.26566806	     16.35037769	      3.62323576	      0.00000000	      0.00000000	    -64.32229904	     -2.83619564	     -1.24589327	     89.26145738	    -29.31836906	     31.52121784	     67.74149326	     36.56755618	      0.00000000	      0.00000000	     89.72941924	     -8.27688166	     28.48702122	     66.21141236	     26.18974880	      0.00000000	      0.00000000
      7.56000000	    -16.68402646	      3.47277954	      7.66675169	      0.14272191	      1.14305752	     -0.23833092	      0.00000000	      0.50000000	      0.00000000	      0.25000000	     64.72700600	    -12.65755800	     -2.33289865	     89.04088339	      1.55405658	    -15.09310243	    -12.51270689	      0.00000000	      0.00000000	     71.52578937	      1.08269129	      1.45977738	     70.06253051	      1.22282184	     17.09928641	      2.73598555	      0.00000000	      0.00000000	    -64.32654198	     -2.39806277	     -0.77975360	     89.23652377	    -28.64856990	     31.14649568	     67.20189710	     36.54946210	      0.00000000	      0.00000000	     89.71568950	     -8.33435119	     28.74681951	     65.72409838	     26.10499341	      0.00000000	      0.00000000
      7.56500000	    -16.36675361	      2.92400207	      7.60978556	      0.14275588	      1.14138497	     -0.23920387	      0.00000000	      0.50000000	      0.00000000	      0.25000000	     65.91673763	    -12.35952721	     -2.29252771	     91.18357274	      1.59145357	    -16.23704965	    -12.36989794	      0.00000000	      0.00000000	     69.73401078	      1.05071906	      2.08946064	     67.84173580	      1.18406166	     17.70641539	      2.37378962	      0.00000000	      0.00000000	    -64.24845685	     -1.83661176	     -0.08950877	     89.25026149	    -28.29855456	     31.02149357	     67.07761505	     36.55338696	      0.00000000	      0.00000000	     89.68676926	     -8.40047927	     28.79930023	     65.54743248	     26.10146334	      0.00000000	      0.00000000
